<svg xmlns="http://www.w3.org/2000/svg" viewBox="0 0 1696.73 375"><defs><style>.cls-1{font-size:264.91px;font-family:MyriadPro-Regular, Myriad Pro;}.cls-2{letter-spacing:0.01em;}.cls-3{fill:none;stroke:#000;stroke-miterlimit:10;stroke-width:4px;}.cls-4{fill:#df2b00;}</style></defs><title>Asset 1</title><g id="Layer_2" data-name="Layer 2"><g id="Lens"><text class="cls-1" transform="translate(103.27 289)">VI<tspan class="cls-2" x="211.13" y="0">E</tspan><tspan x="343.84" y="0">WFINDERS</tspan></text><polyline class="cls-3" points="106 4 2 4 2 102.54"/><polyline class="cls-3" points="1590.73 370.27 1694.73 370.27 1694.73 271.73"/><polyline class="cls-3" points="1692 106 1692 2 1593.46 2"/><polyline class="cls-3" points="4.73 269 4.73 373 103.27 373"/><path class="cls-4" d="M305.28,23.34l-13,19.58L274.57,13.83S294.44,10.6,305.28,23.34Z"/><path class="cls-4" d="M307.84,26.19,290,56.42l24.62-.19A33.11,33.11,0,0,0,307.84,26.19Z"/><path class="cls-4" d="M279.89,60.89l11.51,19.3s14.73-2.38,21.2-19.59Z"/><path class="cls-4" d="M269.91,51.86,257.74,73s14.83,13.5,29.28,8Z"/><path class="cls-4" d="M271.81,39.21H247.1s-4,17.78,7,29.95Z"/><path class="cls-4" d="M269.82,15s-13.12,3.14-20.73,19.11l32.33.19Z"/></g></g></svg>